<svg xmlns="http://www.w3.org/2000/svg" enable-background="new 0 0 80 80" viewBox="0 0 80 80"><path d="M73.0507812,5.2929688L59.2043457,19.1394043l-0.3649902-0.3649902c-1.3007812-1.2998047-3.4194336-1.3017578-4.7202148,0
	l-1.9216309,1.9216309l-0.8981934-0.8981934c-1.1333008-1.1328125-3.1103516-1.1328125-4.2426758,0L17.3450317,49.5090332
	l-1.5559692-1.5559082L14.375,49.3671875l5.2449341,5.244812l-6.9326782,6.9326782l-0.7155762-0.7155762
	c-0.7773438-0.7783203-1.7836914-1.2421875-2.8330078-1.3076172c-1.0874023-0.0742188-2.1064453,0.3017578-2.847168,1.0410156
	c-1.4926758,1.4921875-1.3730469,4.0410156,0.2666016,5.6806641l7.4414062,7.4414062
	c0.8706055,0.8701172,1.996582,1.3125,3.0854492,1.3125c0.9619141,0,1.8945312-0.3457031,2.5947266-1.0458984
	c1.4926758-1.4921875,1.3730469-4.0410156-0.2666016-5.6806641l-0.7150879-0.7150879l6.9324951-6.9324951l3.6883545,3.6885986
	l0.0004883-0.0004883l1.5561523,1.5561523l1.4140625-1.4140625l-1.5561523-1.5560913l29.7119141-29.7114868
	c0.565918-0.5664062,0.8779297-1.3203125,0.8779297-2.1210938c0-0.8017578-0.3120117-1.5546875-0.878418-2.1210938
	l-1.3834229-1.3834229l1.9215088-1.9212646c1.3017578-1.3017578,1.3017578-3.4189453,0-4.7207031l-0.364502-0.364502
	L74.4648438,6.7070312L73.0507812,5.2929688z M17.9990234,69.6845703c0.8598633,0.8603516,0.9794922,2.1396484,0.2666016,2.8525391
	c-0.7138672,0.7119141-1.9921875,0.59375-2.8520508-0.2666016L7.972168,64.8291016
	c-0.8598633-0.8603516-0.9794922-2.1396484-0.2666016-2.8525391c0.3012695-0.3007812,0.7172852-0.4628906,1.1816406-0.4628906
	c0.0419922,0,0.0839844,0.0009766,0.1269531,0.0039062c0.5625,0.0351562,1.1103516,0.2929688,1.543457,0.7255859
	l0.7155762,0.7155762l-0.0002441,0.0002441l6.0107422,6.0107422l0.0002441-0.0002441L17.9990234,69.6845703z M17.2839355,66.1413574
	l-3.1826172-3.1826172l6.932373-6.932373l3.1826172,3.1826172L17.2839355,66.1413574z M59.0307617,31.7714844L29.3192749,61.4829712
	l-7.2800903-7.2799072l-3.2799072-3.2802124l2.0825195-2.0825195l2.9819336,2.9819336l1.4140625-1.4140625l-2.9819336-2.9819336
	L25.25177,44.430481l1.8087769,1.8087769l1.4140625-1.4140625l-1.8087769-1.8087769l2.9960938-2.9960938l2.9816284,2.9816284
	l1.4140625-1.4140625l-2.9815674-2.9815674l2.9958496-2.9958496l1.8084717,1.8084717l1.4140625-1.4140625l-1.8084717-1.8084717
	l2.9956665-2.9955444l2.9817505,2.9817505l1.4140625-1.4140625l-2.9817505-2.9817505l2.9957886-2.9957886l1.8082275,1.8085938
	l1.4140625-1.4140625l-1.8082275-1.8085327l4.1651611-4.1651001c0.3896484-0.390625,1.0249023-0.390625,1.4145508,0
	l0.8981934,0.8981934l-0.0812988,0.0812988l1.4140625,1.4140625l0.0812988-0.0812988l6.833252,6.833252
	c0.1889648,0.1884766,0.2924805,0.4394531,0.2924805,0.7070312C59.3232422,31.3310547,59.2192383,31.5830078,59.0307617,31.7714844z
	 M59.5688477,24.2246094l-1.9215088,1.9212646l-4.0357666-4.0357666l1.9216309-1.9216309
	c0.5209961-0.5214844,1.3701172-0.5214844,1.8920898,0l2.1435547,2.1435547
	C60.090332,22.8535156,60.090332,23.703125,59.5688477,24.2246094z"/></svg>